<?xml version="1.0" encoding="UTF-8" standalone="no"?>
<!-- Generator: Adobe Illustrator 19.0.0, SVG Export Plug-In . SVG Version: 6.00 Build 0)  -->

<svg
   xmlns:dc="http://purl.org/dc/elements/1.1/"
   xmlns:cc="http://creativecommons.org/ns#"
   xmlns:rdf="http://www.w3.org/1999/02/22-rdf-syntax-ns#"
   xmlns:svg="http://www.w3.org/2000/svg"
   xmlns="http://www.w3.org/2000/svg"
   xmlns:xlink="http://www.w3.org/1999/xlink"
   xmlns:sodipodi="http://sodipodi.sourceforge.net/DTD/sodipodi-0.dtd"
   xmlns:inkscape="http://www.inkscape.org/namespaces/inkscape"
   version="1.1"
   id="Capa_1"
   x="0px"
   y="0px"
   viewBox="0 0 2045.2606 696.08336"
   xml:space="preserve"
   sodipodi:docname="long_logo_13.svg"
   inkscape:version="0.92.2 5c3e80d, 2017-08-06"
   width="2045.2606"
   height="696.08337"
   inkscape:export-filename="/Users/Personal/Uni_Work/4th_Year/MobHCI/shitMobHCIProj/assets/images/long_logo_12.png"
   inkscape:export-xdpi="96"
   inkscape:export-ydpi="96"><metadata
     id="metadata67"><rdf:RDF><cc:Work
         rdf:about=""><dc:format>image/svg+xml</dc:format><dc:type
           rdf:resource="http://purl.org/dc/dcmitype/StillImage" /><dc:title></dc:title></cc:Work></rdf:RDF></metadata><defs
     id="defs65"><linearGradient
       inkscape:collect="always"
       id="linearGradient214"><stop
         style="stop-color:#4d4d4d;stop-opacity:1;"
         offset="0"
         id="stop210" /><stop
         style="stop-color:#3bcd92;stop-opacity:1"
         offset="1"
         id="stop212" /></linearGradient><linearGradient
       inkscape:collect="always"
       xlink:href="#linearGradient214"
       id="linearGradient216"
       x1="-757.65265"
       y1="426.79218"
       x2="538.34735"
       y2="430.79218"
       gradientUnits="userSpaceOnUse" /></defs><sodipodi:namedview
     pagecolor="#ffffff"
     bordercolor="#666666"
     borderopacity="1"
     objecttolerance="10"
     gridtolerance="10"
     guidetolerance="10"
     inkscape:pageopacity="0"
     inkscape:pageshadow="2"
     inkscape:window-width="1358"
     inkscape:window-height="755"
     id="namedview63"
     showgrid="false"
     inkscape:zoom="0.3535534"
     inkscape:cx="982.4312"
     inkscape:cy="375.04277"
     inkscape:window-x="0"
     inkscape:window-y="0"
     inkscape:window-maximized="0"
     inkscape:current-layer="g4057"
     fit-margin-top="0"
     fit-margin-left="0"
     fit-margin-right="0"
     fit-margin-bottom="0" /><g
     id="g3785"
     transform="matrix(1.3595458,0,0,1.3595458,852.54905,203.51591)"><path
       inkscape:connector-curvature="0"
       id="path2"
       d="m -520.55609,308.89596 c -8.443,-28.372 -35.034,-48.188 -64.664,-48.188 -13.878,0 -27.21,4.184 -38.557,12.097 -3.5,2.442 -4.358,7.258 -1.916,10.757 2.442,3.5 7.257,4.361 10.757,1.916 8.739,-6.097 19.015,-9.319 29.716,-9.319 22.844,0 43.345,15.273 49.854,37.144 0.998,3.354 4.072,5.524 7.403,5.524 0.729,0 1.472,-0.105 2.208,-0.323 4.087,-1.215 6.416,-5.517 5.199,-9.608 z"
       style="fill:#feb756" /><circle
       id="circle4"
       r="34.130001"
       cy="328.17297"
       cx="-585.22107"
       style="fill:#57555c" /><path
       inkscape:connector-curvature="0"
       id="path6"
       d="m -248.99709,203.53596 -63.496,104.593 c -1.121,1.846 -3.124,2.973 -5.284,2.973 h -232.861 c -9.566,0 -17.691,7.828 -17.511,17.394 0.174,9.276 7.747,16.741 17.064,16.741 l 255.989,-0.003 0.005,0.003 0.002,-0.003 h 10e-4 v -0.001 l 55.243,-90.997 z"
       style="fill:#3bcd92" /><circle
       id="circle8"
       r="34.130001"
       cy="328.17297"
       cx="-209.76109"
       style="fill:#57555c" /><g
       transform="translate(-657.35209,-149.69404)"
       id="g14"><path
         inkscape:connector-curvature="0"
         id="path10"
         d="m 447.594,443.73 c -3.591,0 -7.051,0.557 -10.302,1.586 13.816,4.369 23.832,17.287 23.832,32.548 0,15.26 -10.016,28.179 -23.832,32.548 3.251,1.028 6.711,1.585 10.302,1.585 18.851,0 34.134,-15.283 34.134,-34.134 0,-18.851 -15.282,-34.133 -34.134,-34.133 z"
         style="fill:#4b494f" /><path
         inkscape:connector-curvature="0"
         id="path12"
         d="m 72.131,443.73 c -3.591,0 -7.051,0.557 -10.302,1.586 13.816,4.369 23.832,17.287 23.832,32.548 0,15.26 -10.016,28.179 -23.832,32.548 3.251,1.028 6.711,1.585 10.302,1.585 18.851,0 34.134,-15.283 34.134,-34.134 0.001,-18.851 -15.282,-34.133 -34.134,-34.133 z"
         style="fill:#4b494f" /></g><path
       inkscape:connector-curvature="0"
       id="path16"
       d="m -568.15409,320.43796 h -17.067 c -4.267,0 -7.726,3.458 -7.726,7.726 0,4.268 3.459,7.726 7.726,7.726 h 17.067 c 4.268,0 7.726,-3.458 7.726,-7.726 10e-4,-4.266 -3.457,-7.726 -7.726,-7.726 z"
       style="fill:#85828c" /><path
       inkscape:connector-curvature="0"
       id="path18"
       d="m -534.02109,345.23696 v -34.135 h -17.065 c -9.426,0 -17.067,7.642 -17.067,17.067 0,9.425 7.642,17.067 17.067,17.067 z"
       style="fill:#36a882" /><path
       inkscape:connector-curvature="0"
       id="path20"
       d="m -202.16209,326.75196 -9.382,-50.333 c -0.783,-4.196 -4.822,-6.965 -9.011,-6.18 -4.195,0.782 -6.962,4.816 -6.18,9.011 l 9.382,50.333 c 0.693,3.717 3.938,6.312 7.586,6.312 0.47,0 0.947,-0.042 1.425,-0.132 4.195,-0.782 6.962,-4.816 6.18,-9.011 z"
       style="fill:#85828c" /><polygon
       transform="translate(-657.35209,-149.69404)"
       id="polygon22"
       points="417.506,403.93 408.355,353.23 391.461,381.057 400.673,431.658 "
       style="fill:#36a882" /><path
       inkscape:connector-curvature="0"
       id="path24"
       d="m -259.29709,14.089959 -25.647,-137.609999 c -0.537,-2.877 -2.652,-5.204 -5.465,-6.011 l -23.115,-6.631 c -4.098,-1.175 -8.382,1.194 -9.557,5.296 -1.177,4.101 1.194,8.381 5.296,9.557 l 18.526,5.315 24.773,132.915999 c 0.693,3.717 3.938,6.312 7.586,6.312 0.47,0 0.947,-0.042 1.425,-0.132 4.193,-0.783 6.96,-4.817 6.178,-9.012 z"
       style="fill:#85828c" /><path
       inkscape:connector-curvature="0"
       id="path26"
       d="m -250.74509,8.9909592 -33.554,6.2539998 47.273,259.611001 c 0.613,3.369 3.848,5.596 7.213,4.969 l 21.401,-3.989 c 3.346,-0.623 5.558,-3.835 4.948,-7.183 z"
       style="fill:#3bcd92" /><path
       inkscape:connector-curvature="0"
       id="path28"
       d="m -234.76109,6.0119592 c -0.783,-4.196 -4.821,-6.96800005 -9.011,-6.18000005 l -50.333,9.38200005 c -4.195,0.782 -6.962,4.8159998 -6.18,9.0109998 0.693,3.717 3.938,6.312 7.586,6.312 0.47,0 0.947,-0.042 1.425,-0.132 l 50.333,-9.381 c 4.196,-0.782 6.962,-4.816 6.18,-9.0119998 z"
       style="fill:#feb756" /><circle
       id="circle30"
       r="17.066999"
       cy="-132.62704"
       cx="-329.22107"
       style="fill:#57555c" /></g><g
     id="g32"
     transform="translate(52.667312,182.99094)" /><g
     id="g34"
     transform="translate(52.667312,182.99094)" /><g
     id="g36"
     transform="translate(52.667312,182.99094)" /><g
     id="g38"
     transform="translate(52.667312,182.99094)" /><g
     id="g40"
     transform="translate(52.667312,182.99094)" /><g
     id="g42"
     transform="translate(52.667312,182.99094)" /><g
     id="g44"
     transform="translate(52.667312,182.99094)" /><g
     id="g46"
     transform="translate(52.667312,182.99094)" /><g
     id="g48"
     transform="translate(52.667312,182.99094)" /><g
     id="g50"
     transform="translate(52.667312,182.99094)" /><g
     id="g52"
     transform="translate(52.667312,182.99094)" /><g
     id="g54"
     transform="translate(52.667312,182.99094)" /><g
     id="g56"
     transform="translate(52.667312,182.99094)" /><g
     id="g58"
     transform="translate(52.667312,182.99094)" /><g
     id="g60"
     transform="translate(52.667312,182.99094)" /><flowRoot
     xml:space="preserve"
     id="flowRoot3762"
     style="font-style:normal;font-weight:normal;font-size:40px;line-height:1.25;font-family:sans-serif;letter-spacing:0px;word-spacing:0px;fill:#000000;fill-opacity:1;stroke:none"
     transform="translate(52.667312,182.99094)"><flowRegion
       id="flowRegion3764"><rect
         id="rect3766"
         width="251.65955"
         height="299.38809"
         x="-2117.4114"
         y="-525.01385" /></flowRegion><flowPara
       id="flowPara3768" /></flowRoot><g
     id="g4057"
     transform="matrix(1.21297,0,0,1.21297,1467.8081,217.60034)"><g
       id="g208"><path
         style="fill:#f9f9f9"
         inkscape:connector-curvature="0"
         d="m 170.32078,-416.63691 c 0,53.01562 -42.98047,96 -95.999996,96 -53.019531,0 -96,-42.98438 -96,-96 0,-53.01953 42.980469,-96 96,-96 53.019526,0 95.999996,42.98047 95.999996,96 z m 0,0"
         id="path3980" /><path
         style="fill:#f9f9f9"
         inkscape:connector-curvature="0"
         d="m 438.32078,-416.63691 c 0,53.01562 -42.98047,96 -96,96 -53.01953,0 -96,-42.98438 -96,-96 0,-53.01953 42.98047,-96 96,-96 53.01953,0 96,42.98047 96,96 z m 0,0"
         id="path3982" /><path
         style="fill:#ebebeb"
         inkscape:connector-curvature="0"
         d="m 15.734846,-434.45332 c -2.691406,-0.008 -5.203124,-1.37109 -6.6757813,-3.6289 -1.472656,-2.25391 -1.710937,-5.10157 -0.632812,-7.57422 2.3750003,-5.39844 5.4101563,-10.48438 9.0312503,-15.14063 1.730469,-2.32812 4.582031,-3.53906 7.460937,-3.16015 2.875,0.375 5.320313,2.28125 6.390625,4.97656 1.074219,2.69141 0.601563,5.75781 -1.226562,8.00781 -2.816407,3.60938 -5.171875,7.5586 -7.019531,11.75 -1.28125,2.90235 -4.152344,4.77344 -7.328126,4.76953 z m 0,0"
         id="path3984" /><path
         style="fill:#ebebeb"
         inkscape:connector-curvature="0"
         d="M 74.320784,-344.63691 C 37.29344,-344.508 6.2543777,-372.58613 2.6801587,-409.43769 c -0.441406,-4.39844 2.765625,-8.32031 7.160156,-8.76172 4.3984383,-0.44141 8.3203133,2.76562 8.7617193,7.16016 2.777344,28.66406 26.921875,50.5 55.71875,50.40234 4.41797,0 8,3.57812 8,8 0,4.41797 -3.58203,8 -8,8 z m 0,0"
         id="path3986" /><path
         style="fill:#ee8427"
         inkscape:connector-curvature="0"
         d="m 74.320784,-312.63691 c -57.4375,0 -104,-46.5625 -104,-104 0,-57.44141 46.5625,-104 104,-104 57.437496,0 103.999996,46.55859 103.999996,104 -0.0664,57.41016 -46.58984,103.93359 -103.999996,104 z m 0,-192 c -48.601562,0 -88,39.39844 -88,88 0,48.59766 39.398438,88 88,88 48.601556,0 87.999996,-39.40234 87.999996,-88 -0.0586,-48.57813 -39.42188,-87.94531 -87.999996,-88 z m 0,0"
         id="path3988" /><path
         style="fill:#ee8427"
         inkscape:connector-curvature="0"
         d="m 342.32078,-312.63691 c -57.4375,0 -104,-46.5625 -104,-104 0,-57.44141 46.5625,-104 104,-104 57.4375,0 104,46.55859 104,104 -0.0664,57.41016 -46.58984,103.93359 -104,104 z m 0,-192 c -48.60156,0 -88,39.39844 -88,88 0,48.59766 39.39844,88 88,88 48.60156,0 88,-39.40234 88,-88 -0.0586,-48.57813 -39.42188,-87.94531 -88,-88 z m 0,0"
         id="path3990" /><path
         style="fill:#ebebeb"
         inkscape:connector-curvature="0"
         d="m 409.9614,-415.59004 c -4.10546,-0.004 -7.54296,-3.11718 -7.95312,-7.19921 -3.0625,-30.64454 -28.89453,-53.94922 -59.6875,-53.84766 -4.41797,0 -8,-3.58203 -8,-8 0,-4.42187 3.58203,-8 8,-8 39.01562,-0.125 71.74219,29.41406 75.60937,68.23828 0.22266,2.11328 -0.40625,4.23047 -1.74609,5.88281 -1.33984,1.65235 -3.28516,2.70313 -5.39844,2.91797 -0.28906,-0.008 -0.5625,0.008 -0.82422,0.008 z m 0,0"
         id="path3992" /><path
         style="fill:#ebebeb"
         inkscape:connector-curvature="0"
         d="m 396.87156,-368.04707 c -3.02734,0 -5.80078,-1.71093 -7.15234,-4.42187 -1.35547,-2.71094 -1.06641,-5.95313 0.7539,-8.37891 2.89063,-3.86719 5.3086,-8.07422 7.19922,-12.51953 1.05469,-2.71484 3.50391,-4.64062 6.39063,-5.03125 2.88672,-0.39062 5.7539,0.82031 7.49218,3.16016 1.73438,2.33984 2.0625,5.4375 0.85547,8.08593 -2.3789,5.63672 -5.42578,10.96485 -9.08203,15.86719 -1.51562,2.04297 -3.91015,3.2461 -6.45703,3.23828 z m 0,0"
         id="path3994" /><path
         style="fill:#fbedbf"
         inkscape:connector-curvature="0"
         d="m 205.94578,-400.35957 -119.199216,-8.51172 -22.929686,-22.96875 82.007812,-112.33593 160.49609,-8.91797 v 27.26172 z m -112.082026,-24.04687 104.800776,7.48828 91.65625,-114.52735 v -4.73828 l -136,7.54688 -69.503906,95.19922 z m 0,0"
         id="path3996" /><path
         style="fill:#fbedbf"
         inkscape:connector-curvature="0"
         d="m 202.32078,-400.63691 c -3.25,0 -6.17969,-1.96875 -7.40625,-4.97656 l -72,-176 c -1.67188,-4.09375 0.28906,-8.76172 4.38281,-10.4336 4.08985,-1.66797 8.76172,0.29297 10.42969,4.38281 l 72,176.00001 c 1.65234,4.08203 -0.30469,8.73046 -4.375,10.40234 -0.96094,0.39844 -1.98828,0.61328 -3.03125,0.625 z m 0,0"
         id="path3998" /><path
         style="fill:#ee8427"
         inkscape:connector-curvature="0"
         d="m 101.63328,-608.63691 h 67.28906 c 4.03125,-0.004 7.81641,1.93359 10.17188,5.20312 2.35937,3.26953 3,7.47657 1.72265,11.30078 -1.52343,4.57813 -5.54687,7.87891 -10.33593,8.47657 l -41.83985,5.22656 c -9.03515,1.12891 -18.08984,-1.97656 -24.52734,-8.41797 l -8.136716,-8.13672 c -2.28906,-2.28515 -2.97266,-5.72656 -1.73437,-8.71484 1.23828,-2.98828 4.15624,-4.9375 7.390616,-4.9375 z m 0,0"
         id="path4000" /><path
         style="fill:#fbb540"
         inkscape:connector-curvature="0"
         d="m 338.32078,-528.63691 c -4.03516,-0.0117 -7.43359,-3.02344 -7.92578,-7.03125 -0.48828,-4.00391 2.08203,-7.75 5.99609,-8.73047 l 18.40235,-4.60156 c 4.88281,-1.21485 8.09375,-5.88282 7.48437,-10.87891 -0.61328,-4.99609 -4.85156,-8.75391 -9.88672,-8.75781 h -55.125 l 7.71094,11.55859 c 2.45313,3.67578 1.46094,8.64453 -2.21484,11.09375 -3.67578,2.45313 -8.64454,1.46094 -11.09766,-2.21484 l -16,-24 c -1.63672,-2.45313 -1.78906,-5.61328 -0.39844,-8.21485 1.39063,-2.60156 4.10547,-4.22656 7.05469,-4.22265 h 70.03125 c 13.17578,-0.082 24.32422,9.71875 25.93359,22.79687 1.60938,13.07813 -6.83203,25.28907 -19.63672,28.40235 l -18.39843,4.58984 c -0.63282,0.15234 -1.28125,0.22266 -1.92969,0.21094 z m 0,0"
         id="path4002" /><path
         style="fill:#fbedbf"
         inkscape:connector-curvature="0"
         d="m 342.32078,-416.63691 c -2.30859,0 -4.50391,-0.99609 -6.02344,-2.73047 -19.23828,-22.01953 -32.65234,-48.50781 -39.01562,-77.04687 l -6.77735,-30.48829 c -0.12109,-0.57031 -0.18359,-1.15234 -0.18359,-1.73437 v -24 c 0,-4.42188 3.58203,-8 8,-8 4.41797,0 8,3.57812 8,8 v 23.11719 l 6.58594,29.60156 c 5.77343,25.91797 17.96093,49.97656 35.4375,69.96875 2.09765,2.35937 2.60937,5.73437 1.30859,8.60937 -1.30469,2.875 -4.17578,4.71875 -7.33203,4.70313 z m 0,0"
         id="path4004" /><path
         style="fill:#c3c3c3"
         inkscape:connector-curvature="0"
         d="m 74.320784,-392.63691 c -13.253906,0 -24,-10.74609 -24,-24 0,-13.25781 10.746094,-24 24,-24 13.25391,0 24,10.74219 24,24 0,13.25391 -10.74609,24 -24,24 z m 0,0"
         id="path4006" /><path
         style="fill:#c3c3c3"
         inkscape:connector-curvature="0"
         d="m 342.32078,-392.63691 c -13.25391,0 -24,-10.74609 -24,-24 0,-13.25781 10.74609,-24 24,-24 13.25391,0 24,10.74219 24,24 0,13.25391 -10.74609,24 -24,24 z m 0,0"
         id="path4008" /><path
         style="fill:#fbb540"
         inkscape:connector-curvature="0"
         d="m 186.32078,-368.63691 c -17.67188,0 -32,-14.32813 -32,-32 0,-17.67578 14.32812,-32 32,-32 17.67187,0 32,14.32422 32,32 0,17.67187 -14.32813,32 -32,32 z m 0,0"
         id="path4010" /><path
         style="fill:#9c9c9c"
         inkscape:connector-curvature="0"
         d="m 226.32078,-344.63691 h -16 c -2.80859,-0.004 -5.41016,-1.47656 -6.85547,-3.88281 l -24,-40 c -2.17969,-3.77735 -0.92969,-8.60547 2.80859,-10.85157 3.73829,-2.24609 8.58985,-1.08593 10.90235,2.61329 l 21.67187,36.12109 h 11.47266 c 4.41797,0 8,3.57812 8,8 0,4.41797 -3.58203,8 -8,8 z m 0,0"
         id="path4012" /><path
         style="fill:#9c9c9c"
         inkscape:connector-curvature="0"
         d="m 352.35203,-584.63691 h -26.03125 v 16 h 26.03125 c 5.03516,0.004 9.27344,3.76172 9.88281,8.75781 0.61328,4.99609 -2.59765,9.66406 -7.48047,10.87891 l -18.40234,4.60156 c -3.92188,0.98437 -6.49219,4.73828 -5.99219,8.75 0.5,4.01562 3.91797,7.02344 7.96094,7.01172 0.65625,0 1.30859,-0.0781 1.94531,-0.24219 l 18.39844,-4.58984 c 12.80469,-3.11719 21.24609,-15.32422 19.63672,-28.40235 -1.60938,-13.07812 -12.75781,-22.8789 -25.9336,-22.80078 z m 0,0"
         id="path4014" /></g><path
       style="fill:#3bcd92;fill-opacity:1;stroke-width:0.19175665"
       d=""
       id="path4065"
       inkscape:connector-curvature="0"
       transform="matrix(0.8244227,0,0,0.8244227,1443.4481,896.46949)" /><path
       style="fill:#3bcd92;fill-opacity:1;stroke-width:0.19175665"
       d=""
       id="path4067"
       inkscape:connector-curvature="0"
       transform="matrix(0.8244227,0,0,0.8244227,1443.4481,896.46949)" /><path
       style="fill:#3bcd92;fill-opacity:1;stroke-width:0.19175665"
       d=""
       id="path4071"
       inkscape:connector-curvature="0"
       transform="matrix(0.8244227,0,0,0.8244227,1443.4481,896.46949)" /><path
       style="fill:#3bcd92;fill-opacity:1;stroke-width:0.19175665"
       d=""
       id="path4103"
       inkscape:connector-curvature="0"
       transform="matrix(0.8244227,0,0,0.8244227,1443.4481,896.46949)" /><path
       style="fill:#3bcd92;fill-opacity:1;stroke-width:0.19175665"
       d=""
       id="path4105"
       inkscape:connector-curvature="0"
       transform="matrix(0.8244227,0,0,0.8244227,1443.4481,896.46949)" /><path
       style="fill:#3bcd92;fill-opacity:1;stroke-width:0.19175665"
       d=""
       id="path4107"
       inkscape:connector-curvature="0"
       transform="matrix(0.8244227,0,0,0.8244227,1443.4481,896.46949)" /><path
       style="fill:#3bcd92;fill-opacity:1;stroke-width:0.01694905"
       d=""
       id="path4111"
       inkscape:connector-curvature="0"
       transform="matrix(0.8244227,0,0,0.8244227,1443.4481,896.46949)" /><path
       style="fill:#3bcd92;fill-opacity:1;stroke-width:0.01694905"
       d=""
       id="path4113"
       inkscape:connector-curvature="0"
       transform="matrix(0.8244227,0,0,0.8244227,1443.4481,896.46949)" /><path
       style="fill:#3bcd92;fill-opacity:1;stroke-width:0.01694905"
       d=""
       id="path4115"
       inkscape:connector-curvature="0"
       transform="matrix(0.8244227,0,0,0.8244227,1443.4481,896.46949)" /><path
       style="fill:#3bcd92;fill-opacity:1;stroke-width:0.01694905"
       d=""
       id="path4117"
       inkscape:connector-curvature="0"
       transform="matrix(0.8244227,0,0,0.8244227,1443.4481,896.46949)" /><path
       style="fill:#3bcd92;fill-opacity:1;stroke-width:0.01694905"
       d=""
       id="path4119"
       inkscape:connector-curvature="0"
       transform="matrix(0.8244227,0,0,0.8244227,1443.4481,896.46949)" /><path
       style="fill:#3bcd92;fill-opacity:1;stroke-width:0.01694905"
       d=""
       id="path4121"
       inkscape:connector-curvature="0"
       transform="matrix(0.8244227,0,0,0.8244227,1443.4481,896.46949)" /><path
       style="fill:#3bcd92;fill-opacity:1;stroke-width:0.01694905"
       d=""
       id="path4123"
       inkscape:connector-curvature="0"
       transform="matrix(0.8244227,0,0,0.8244227,1443.4481,896.46949)" /><path
       style="fill:#3bcd92;fill-opacity:1;stroke-width:0.01694905"
       d=""
       id="path4183"
       inkscape:connector-curvature="0"
       transform="matrix(0.8244227,0,0,0.8244227,1443.4481,896.46949)" /><path
       style="fill:#3bcd92;fill-opacity:1;stroke-width:0.0059924"
       d=""
       id="path4207"
       inkscape:connector-curvature="0"
       transform="matrix(0.8244227,0,0,0.8244227,1443.4481,896.46949)" /><path
       style="fill:#3bcd92;fill-opacity:1;stroke-width:0.0059924"
       d=""
       id="path4209"
       inkscape:connector-curvature="0"
       transform="matrix(0.8244227,0,0,0.8244227,1443.4481,896.46949)" /><path
       style="fill:#3bcd92;fill-opacity:1;stroke-width:0.0059924"
       d=""
       id="path4211"
       inkscape:connector-curvature="0"
       transform="matrix(0.8244227,0,0,0.8244227,1443.4481,896.46949)" /><path
       style="fill:#3bcd92;fill-opacity:1;stroke-width:0.0059924"
       d=""
       id="path4213"
       inkscape:connector-curvature="0"
       transform="matrix(0.8244227,0,0,0.8244227,1443.4481,896.46949)" /><path
       style="fill:#3bcd92;fill-opacity:1;stroke-width:0.0059924"
       d=""
       id="path4215"
       inkscape:connector-curvature="0"
       transform="matrix(0.8244227,0,0,0.8244227,1443.4481,896.46949)" /><path
       style="fill:#3bcd92;fill-opacity:1;stroke-width:0.0059924"
       d=""
       id="path4217"
       inkscape:connector-curvature="0"
       transform="matrix(0.8244227,0,0,0.8244227,1443.4481,896.46949)" /><path
       style="fill:#3bcd92;fill-opacity:1;stroke-width:0.0059924"
       d=""
       id="path4219"
       inkscape:connector-curvature="0"
       transform="matrix(0.8244227,0,0,0.8244227,1443.4481,896.46949)" /><path
       style="fill:#3bcd92;fill-opacity:1;stroke-width:0.0059924"
       d=""
       id="path4221"
       inkscape:connector-curvature="0"
       transform="matrix(0.8244227,0,0,0.8244227,1443.4481,896.46949)" /><path
       style="fill:#3bcd92;fill-opacity:1;stroke-width:0.0059924"
       d=""
       id="path4223"
       inkscape:connector-curvature="0"
       transform="matrix(0.8244227,0,0,0.8244227,1443.4481,896.46949)" /><path
       style="fill:#3bcd92;fill-opacity:1;stroke-width:0.0059924"
       d=""
       id="path4225"
       inkscape:connector-curvature="0"
       transform="matrix(0.8244227,0,0,0.8244227,1443.4481,896.46949)" /><path
       style="fill:#3bcd92;fill-opacity:1;stroke-width:0.0059924"
       d=""
       id="path4227"
       inkscape:connector-curvature="0"
       transform="matrix(0.8244227,0,0,0.8244227,1443.4481,896.46949)" /><path
       style="fill:#3bcd92;fill-opacity:1;stroke-width:0.0059924"
       d=""
       id="path4229"
       inkscape:connector-curvature="0"
       transform="matrix(0.8244227,0,0,0.8244227,1443.4481,896.46949)" /><path
       style="fill:#3bcd92;fill-opacity:1;stroke-width:0.0059924"
       d=""
       id="path4231"
       inkscape:connector-curvature="0"
       transform="matrix(0.8244227,0,0,0.8244227,1443.4481,896.46949)" /><path
       style="fill:#3bcd92;fill-opacity:1;stroke-width:0.0059924"
       d=""
       id="path4233"
       inkscape:connector-curvature="0"
       transform="matrix(0.8244227,0,0,0.8244227,1443.4481,896.46949)" /><path
       style="fill:#3bcd92;fill-opacity:1;stroke-width:0.0059924"
       d=""
       id="path4235"
       inkscape:connector-curvature="0"
       transform="matrix(0.8244227,0,0,0.8244227,1443.4481,896.46949)" /><path
       style="fill:#3bcd92;fill-opacity:1;stroke-width:0.0059924"
       d=""
       id="path4237"
       inkscape:connector-curvature="0"
       transform="matrix(0.8244227,0,0,0.8244227,1443.4481,896.46949)" /><path
       style="fill:#3bcd92;fill-opacity:1;stroke-width:0.0059924"
       d=""
       id="path4239"
       inkscape:connector-curvature="0"
       transform="matrix(0.8244227,0,0,0.8244227,1443.4481,896.46949)" /><path
       style="fill:#3bcd92;fill-opacity:1;stroke-width:0.0059924"
       d=""
       id="path4241"
       inkscape:connector-curvature="0"
       transform="matrix(0.8244227,0,0,0.8244227,1443.4481,896.46949)" /><path
       style="fill:#3bcd92;fill-opacity:1;stroke-width:0.0059924"
       d=""
       id="path4247"
       inkscape:connector-curvature="0"
       transform="matrix(0.8244227,0,0,0.8244227,1443.4481,896.46949)" /><path
       style="fill:#3bcd92;fill-opacity:1;stroke-width:0.0059924"
       d=""
       id="path4249"
       inkscape:connector-curvature="0"
       transform="matrix(0.8244227,0,0,0.8244227,1443.4481,896.46949)" /><path
       style="fill:#3bcd92;fill-opacity:1;stroke-width:0.0059924"
       d=""
       id="path4251"
       inkscape:connector-curvature="0"
       transform="matrix(0.8244227,0,0,0.8244227,1443.4481,896.46949)" /><path
       style="fill:#3bcd92;fill-opacity:1;stroke-width:0.0059924"
       d=""
       id="path4253"
       inkscape:connector-curvature="0"
       transform="matrix(0.8244227,0,0,0.8244227,1443.4481,896.46949)" /><path
       style="fill:#3bcd92;fill-opacity:1;stroke-width:0.0059924"
       d=""
       id="path4255"
       inkscape:connector-curvature="0"
       transform="matrix(0.8244227,0,0,0.8244227,1443.4481,896.46949)" /><path
       style="fill:#3bcd92;fill-opacity:1;stroke-width:0.0059924"
       d=""
       id="path4257"
       inkscape:connector-curvature="0"
       transform="matrix(0.8244227,0,0,0.8244227,1443.4481,896.46949)" /><path
       style="fill:#3bcd92;fill-opacity:1;stroke-width:0.0059924"
       d=""
       id="path4259"
       inkscape:connector-curvature="0"
       transform="matrix(0.8244227,0,0,0.8244227,1443.4481,896.46949)" /><path
       style="fill:#3bcd92;fill-opacity:1;stroke-width:0.0059924"
       d=""
       id="path4261"
       inkscape:connector-curvature="0"
       transform="matrix(0.8244227,0,0,0.8244227,1443.4481,896.46949)" /><path
       style="fill:#3bcd92;fill-opacity:1;stroke-width:0.00390625"
       d=""
       id="path4267"
       inkscape:connector-curvature="0"
       transform="matrix(0.8244227,0,0,0.8244227,1443.4481,896.46949)" /><path
       style="fill:#3bcd92;fill-opacity:1;stroke-width:0.00390625"
       d=""
       id="path4269"
       inkscape:connector-curvature="0"
       transform="matrix(0.8244227,0,0,0.8244227,1443.4481,896.46949)" /><g
       id="g158"
       class="layer"
       transform="matrix(0.90619117,0,0,0.90619117,10.758801,-322.21665)"><title
         id="title155">Layer 1</title><path
         id="svg_1"
         d="m -788.59459,323.30795 h 37.18713 l 63.8112,89.55626 64.03201,-89.55648 h 37.18713 l -82.73598,114.64158 93.07828,126.74364 h -37.62653 l -73.93491,-101.43997 -72.83309,101.43997 h -36.96633 l 91.31627,-126.74364 z m 249.96684,-86.25348 h 64.91301 q 56.11058,0 75.47409,4.84104 28.16525,7.0413 45.76852,28.38517 17.60331,21.34385 17.60331,53.91055 0,32.34608 -17.2732,53.57998 -17.27318,21.23389 -47.63983,28.49422 -22.22418,5.2811 -82.95546,5.2811 h -23.32534 v 151.82874 h -32.56578 V 237.06392 l 6.8e-4,-0.0103 z m 32.56579,31.70279 V 379.6585 l 55.44947,0.6602 q 33.22623,0 48.73921,-6.05102 15.51296,-6.05102 24.4249,-19.80378 8.91192,-13.75275 8.91172,-30.25624 0,-16.72316 -8.91172,-30.36574 -8.91171,-13.64257 -23.43349,-19.36374 -14.52179,-5.72114 -47.52944,-5.72114 h -57.65088 z m 226.203,-38.73284 h 31.24543 v 334.69331 h -31.24543 z m 209.478304,81.40884 q 55.670306,0 92.417188,40.26751 33.226209,36.96701 33.226209,87.35646 0,50.38943 -35.20656,88.12568 -35.206588,37.73626 -90.437511,37.73694 -55.4504,0 -90.54678,-37.73716 -35.09639,-37.73717 -35.09616,-88.12569 0,-50.16929 33.22621,-87.13607 36.74664,-40.48768 92.417184,-40.48768 h 2.2e-4 z m 0,30.37363 q -38.507304,0 -66.232284,28.60531 -27.72499,28.6053 -27.72588,69.09273 0,26.18489 12.65227,48.9591 12.65228,22.77421 34.21742,34.98575 21.565111,12.21157 47.0878,12.21224 25.964754,0 47.418798,-12.21224 21.4540294,-12.21223 33.996564,-34.98575 12.542573,-22.77352 12.542341,-48.96021 0,-40.48768 -27.7252009,-69.09297 Q -31.874015,341.80552 -70.382237,341.80621 Z M 100.59213,454.24258 v -29.0465 q 3.52064,-21.7839 10.12191,-35.42647 15.40278,-37.8471 41.36753,-55.45038 25.96477,-17.60329 43.12888,-17.60332 12.76247,0 27.28516,8.36173 l -16.06299,25.96385 q -20.46374,-7.48159 -40.59761,12.10205 -20.13388,19.58363 -27.83628,42.68748 -5.72094,20.46375 -5.72094,76.79424 v 81.63418 H 100.59077 V 454.23921 Z m 351.40726,24.6455 25.96384,13.86248 q -12.54231,25.30478 -29.48543,40.70779 -16.94307,15.40305 -38.06813,23.43351 -21.12506,8.03048 -47.748,8.0316 -58.97106,0 -92.19725,-38.61725 -33.22621,-38.61728 -33.22599,-87.24696 0,-45.98866 28.16525,-81.8552 35.64661,-45.76854 95.71792,-45.76854 61.39146,0 98.35824,46.86857 26.18491,33.00629 26.40503,82.29549 H 269.14539 q 0.8801,42.24785 26.84509,69.20292 25.96497,26.95505 64.03199,26.95527 18.4834,0 35.86656,-6.49131 17.38312,-6.49129 29.59603,-17.05325 12.2129,-10.56199 26.51588,-34.32557 z m 0,-64.9128 q -6.161,-24.86473 -18.04335,-39.71751 -11.88235,-14.85279 -31.46623,-23.98553 -19.58386,-9.13275 -41.1483,-9.13162 -35.42647,0 -60.9514,22.88416 -18.48339,16.72318 -27.94511,49.94937 h 179.55461 z"
         inkscape:connector-curvature="0"
         style="fill:url(#linearGradient216);fill-opacity:1;stroke-width:2.05669355" /></g></g></svg>