<?xml version="1.0" encoding="UTF-8" standalone="no"?>
<!-- Generator: Adobe Illustrator 19.0.0, SVG Export Plug-In . SVG Version: 6.00 Build 0)  -->

<svg
   xmlns:dc="http://purl.org/dc/elements/1.1/"
   xmlns:cc="http://creativecommons.org/ns#"
   xmlns:rdf="http://www.w3.org/1999/02/22-rdf-syntax-ns#"
   xmlns:svg="http://www.w3.org/2000/svg"
   xmlns="http://www.w3.org/2000/svg"
   xmlns:sodipodi="http://sodipodi.sourceforge.net/DTD/sodipodi-0.dtd"
   xmlns:inkscape="http://www.inkscape.org/namespaces/inkscape"
   version="1.1"
   id="Capa_1"
   x="0px"
   y="0px"
   viewBox="0 0 511.997 511.997"
   style="enable-background:new 0 0 511.997 511.997;"
   xml:space="preserve"
   sodipodi:docname="long_logo_3.svg"
   inkscape:version="0.92.2 5c3e80d, 2017-08-06"><metadata
     id="metadata67"><rdf:RDF><cc:Work
         rdf:about=""><dc:format>image/svg+xml</dc:format><dc:type
           rdf:resource="http://purl.org/dc/dcmitype/StillImage" /><dc:title></dc:title></cc:Work></rdf:RDF></metadata><defs
     id="defs65" /><sodipodi:namedview
     pagecolor="#ffffff"
     bordercolor="#666666"
     borderopacity="1"
     objecttolerance="10"
     gridtolerance="10"
     guidetolerance="10"
     inkscape:pageopacity="0"
     inkscape:pageshadow="2"
     inkscape:window-width="1358"
     inkscape:window-height="755"
     id="namedview63"
     showgrid="false"
     inkscape:zoom="0.2304701"
     inkscape:cx="-1791.0453"
     inkscape:cy="740.269"
     inkscape:window-x="30"
     inkscape:window-y="0"
     inkscape:window-maximized="0"
     inkscape:current-layer="Capa_1" /><g
     id="g3785"
     transform="matrix(-1.3595458,0,0,1.3595458,-2715.4363,-811.47503)"><path
       inkscape:connector-curvature="0"
       id="path2"
       d="m -520.55609,308.89596 c -8.443,-28.372 -35.034,-48.188 -64.664,-48.188 -13.878,0 -27.21,4.184 -38.557,12.097 -3.5,2.442 -4.358,7.258 -1.916,10.757 2.442,3.5 7.257,4.361 10.757,1.916 8.739,-6.097 19.015,-9.319 29.716,-9.319 22.844,0 43.345,15.273 49.854,37.144 0.998,3.354 4.072,5.524 7.403,5.524 0.729,0 1.472,-0.105 2.208,-0.323 4.087,-1.215 6.416,-5.517 5.199,-9.608 z"
       style="fill:#feb756" /><circle
       id="circle4"
       r="34.130001"
       cy="328.17297"
       cx="-585.22107"
       style="fill:#57555c" /><path
       inkscape:connector-curvature="0"
       id="path6"
       d="m -248.99709,203.53596 -63.496,104.593 c -1.121,1.846 -3.124,2.973 -5.284,2.973 h -232.861 c -9.566,0 -17.691,7.828 -17.511,17.394 0.174,9.276 7.747,16.741 17.064,16.741 l 255.989,-0.003 0.005,0.003 0.002,-0.003 h 10e-4 v -0.001 l 55.243,-90.997 z"
       style="fill:#3bcd92" /><circle
       id="circle8"
       r="34.130001"
       cy="328.17297"
       cx="-209.76109"
       style="fill:#57555c" /><g
       transform="translate(-657.35209,-149.69404)"
       id="g14"><path
         inkscape:connector-curvature="0"
         id="path10"
         d="m 447.594,443.73 c -3.591,0 -7.051,0.557 -10.302,1.586 13.816,4.369 23.832,17.287 23.832,32.548 0,15.26 -10.016,28.179 -23.832,32.548 3.251,1.028 6.711,1.585 10.302,1.585 18.851,0 34.134,-15.283 34.134,-34.134 0,-18.851 -15.282,-34.133 -34.134,-34.133 z"
         style="fill:#4b494f" /><path
         inkscape:connector-curvature="0"
         id="path12"
         d="m 72.131,443.73 c -3.591,0 -7.051,0.557 -10.302,1.586 13.816,4.369 23.832,17.287 23.832,32.548 0,15.26 -10.016,28.179 -23.832,32.548 3.251,1.028 6.711,1.585 10.302,1.585 18.851,0 34.134,-15.283 34.134,-34.134 0.001,-18.851 -15.282,-34.133 -34.134,-34.133 z"
         style="fill:#4b494f" /></g><path
       inkscape:connector-curvature="0"
       id="path16"
       d="m -568.15409,320.43796 h -17.067 c -4.267,0 -7.726,3.458 -7.726,7.726 0,4.268 3.459,7.726 7.726,7.726 h 17.067 c 4.268,0 7.726,-3.458 7.726,-7.726 10e-4,-4.266 -3.457,-7.726 -7.726,-7.726 z"
       style="fill:#85828c" /><path
       inkscape:connector-curvature="0"
       id="path18"
       d="m -534.02109,345.23696 v -34.135 h -17.065 c -9.426,0 -17.067,7.642 -17.067,17.067 0,9.425 7.642,17.067 17.067,17.067 z"
       style="fill:#36a882" /><path
       inkscape:connector-curvature="0"
       id="path20"
       d="m -202.16209,326.75196 -9.382,-50.333 c -0.783,-4.196 -4.822,-6.965 -9.011,-6.18 -4.195,0.782 -6.962,4.816 -6.18,9.011 l 9.382,50.333 c 0.693,3.717 3.938,6.312 7.586,6.312 0.47,0 0.947,-0.042 1.425,-0.132 4.195,-0.782 6.962,-4.816 6.18,-9.011 z"
       style="fill:#85828c" /><polygon
       transform="translate(-657.35209,-149.69404)"
       id="polygon22"
       points="417.506,403.93 408.355,353.23 391.461,381.057 400.673,431.658 "
       style="fill:#36a882" /><path
       inkscape:connector-curvature="0"
       id="path24"
       d="m -259.29709,14.089959 -25.647,-137.609999 c -0.537,-2.877 -2.652,-5.204 -5.465,-6.011 l -23.115,-6.631 c -4.098,-1.175 -8.382,1.194 -9.557,5.296 -1.177,4.101 1.194,8.381 5.296,9.557 l 18.526,5.315 24.773,132.915999 c 0.693,3.717 3.938,6.312 7.586,6.312 0.47,0 0.947,-0.042 1.425,-0.132 4.193,-0.783 6.96,-4.817 6.178,-9.012 z"
       style="fill:#85828c" /><path
       inkscape:connector-curvature="0"
       id="path26"
       d="m -250.74509,8.9909592 -33.554,6.2539998 47.273,259.611001 c 0.613,3.369 3.848,5.596 7.213,4.969 l 21.401,-3.989 c 3.346,-0.623 5.558,-3.835 4.948,-7.183 z"
       style="fill:#3bcd92" /><path
       inkscape:connector-curvature="0"
       id="path28"
       d="m -234.76109,6.0119592 c -0.783,-4.196 -4.821,-6.96800005 -9.011,-6.18000005 l -50.333,9.38200005 c -4.195,0.782 -6.962,4.8159998 -6.18,9.0109998 0.693,3.717 3.938,6.312 7.586,6.312 0.47,0 0.947,-0.042 1.425,-0.132 l 50.333,-9.381 c 4.196,-0.782 6.962,-4.816 6.18,-9.0119998 z"
       style="fill:#feb756" /><circle
       id="circle30"
       r="17.066999"
       cy="-132.62704"
       cx="-329.22107"
       style="fill:#57555c" /></g><g
     id="g32" /><g
     id="g34" /><g
     id="g36" /><g
     id="g38" /><g
     id="g40" /><g
     id="g42" /><g
     id="g44" /><g
     id="g46" /><g
     id="g48" /><g
     id="g50" /><g
     id="g52" /><g
     id="g54" /><g
     id="g56" /><g
     id="g58" /><g
     id="g60" /><text
     xml:space="preserve"
     style="font-style:italic;font-variant:normal;font-weight:normal;font-stretch:normal;font-size:533.33333333px;line-height:1.25;font-family:'Myriad Pro';-inkscape-font-specification:'Myriad Pro, Italic';font-variant-ligatures:normal;font-variant-caps:normal;font-variant-numeric:normal;font-feature-settings:normal;text-align:start;letter-spacing:0px;word-spacing:0px;writing-mode:lr;text-anchor:start;fill:#4d4d4d;fill-opacity:1;stroke:none;stroke-width:6.77336025;"
     x="-2336.6152"
     y="-435.89621"
     id="text3760"
     transform="scale(1.0073375,0.99271594)"><tspan
       sodipodi:role="line"
       id="tspan3833">xPlore</tspan></text>
<flowRoot
     xml:space="preserve"
     id="flowRoot3762"
     style="fill:black;fill-opacity:1;stroke:none;font-family:sans-serif;font-style:normal;font-weight:normal;font-size:40px;line-height:1.25;letter-spacing:0px;word-spacing:0px"><flowRegion
       id="flowRegion3764"><rect
         id="rect3766"
         width="251.65955"
         height="299.38809"
         x="-2117.4114"
         y="-525.01385" /></flowRegion><flowPara
       id="flowPara3768"></flowPara></flowRoot></svg>