<?xml version="1.0" encoding="UTF-8" standalone="no"?>
<!-- Generator: Adobe Illustrator 19.0.0, SVG Export Plug-In . SVG Version: 6.00 Build 0)  -->

<svg
   xmlns:dc="http://purl.org/dc/elements/1.1/"
   xmlns:cc="http://creativecommons.org/ns#"
   xmlns:rdf="http://www.w3.org/1999/02/22-rdf-syntax-ns#"
   xmlns:svg="http://www.w3.org/2000/svg"
   xmlns="http://www.w3.org/2000/svg"
   xmlns:sodipodi="http://sodipodi.sourceforge.net/DTD/sodipodi-0.dtd"
   xmlns:inkscape="http://www.inkscape.org/namespaces/inkscape"
   version="1.1"
   id="Capa_1"
   x="0px"
   y="0px"
   viewBox="0 0 2045.2606 696.08336"
   xml:space="preserve"
   sodipodi:docname="long_logo_11.svg"
   inkscape:version="0.92.2 5c3e80d, 2017-08-06"
   width="2045.2606"
   height="696.08337"
   inkscape:export-filename="/Users/Personal/Uni_Work/4th_Year/MobHCI/shitMobHCIProj/assets/images/long_logo_10.png"
   inkscape:export-xdpi="96"
   inkscape:export-ydpi="96"><metadata
     id="metadata67"><rdf:RDF><cc:Work
         rdf:about=""><dc:format>image/svg+xml</dc:format><dc:type
           rdf:resource="http://purl.org/dc/dcmitype/StillImage" /><dc:title></dc:title></cc:Work></rdf:RDF></metadata><defs
     id="defs65" /><sodipodi:namedview
     pagecolor="#ffffff"
     bordercolor="#666666"
     borderopacity="1"
     objecttolerance="10"
     gridtolerance="10"
     guidetolerance="10"
     inkscape:pageopacity="0"
     inkscape:pageshadow="2"
     inkscape:window-width="1358"
     inkscape:window-height="755"
     id="namedview63"
     showgrid="false"
     inkscape:zoom="0.1767767"
     inkscape:cx="962.77706"
     inkscape:cy="470.80096"
     inkscape:window-x="30"
     inkscape:window-y="0"
     inkscape:window-maximized="0"
     inkscape:current-layer="g4057"
     fit-margin-top="0"
     fit-margin-left="0"
     fit-margin-right="0"
     fit-margin-bottom="0" /><g
     id="g3785"
     transform="matrix(-1.3595458,0,0,1.3595458,-238.76899,203.51591)"><path
       inkscape:connector-curvature="0"
       id="path2"
       d="m -520.55609,308.89596 c -8.443,-28.372 -35.034,-48.188 -64.664,-48.188 -13.878,0 -27.21,4.184 -38.557,12.097 -3.5,2.442 -4.358,7.258 -1.916,10.757 2.442,3.5 7.257,4.361 10.757,1.916 8.739,-6.097 19.015,-9.319 29.716,-9.319 22.844,0 43.345,15.273 49.854,37.144 0.998,3.354 4.072,5.524 7.403,5.524 0.729,0 1.472,-0.105 2.208,-0.323 4.087,-1.215 6.416,-5.517 5.199,-9.608 z"
       style="fill:#feb756" /><circle
       id="circle4"
       r="34.130001"
       cy="328.17297"
       cx="-585.22107"
       style="fill:#57555c" /><path
       inkscape:connector-curvature="0"
       id="path6"
       d="m -248.99709,203.53596 -63.496,104.593 c -1.121,1.846 -3.124,2.973 -5.284,2.973 h -232.861 c -9.566,0 -17.691,7.828 -17.511,17.394 0.174,9.276 7.747,16.741 17.064,16.741 l 255.989,-0.003 0.005,0.003 0.002,-0.003 h 10e-4 v -0.001 l 55.243,-90.997 z"
       style="fill:#3bcd92" /><circle
       id="circle8"
       r="34.130001"
       cy="328.17297"
       cx="-209.76109"
       style="fill:#57555c" /><g
       transform="translate(-657.35209,-149.69404)"
       id="g14"><path
         inkscape:connector-curvature="0"
         id="path10"
         d="m 447.594,443.73 c -3.591,0 -7.051,0.557 -10.302,1.586 13.816,4.369 23.832,17.287 23.832,32.548 0,15.26 -10.016,28.179 -23.832,32.548 3.251,1.028 6.711,1.585 10.302,1.585 18.851,0 34.134,-15.283 34.134,-34.134 0,-18.851 -15.282,-34.133 -34.134,-34.133 z"
         style="fill:#4b494f" /><path
         inkscape:connector-curvature="0"
         id="path12"
         d="m 72.131,443.73 c -3.591,0 -7.051,0.557 -10.302,1.586 13.816,4.369 23.832,17.287 23.832,32.548 0,15.26 -10.016,28.179 -23.832,32.548 3.251,1.028 6.711,1.585 10.302,1.585 18.851,0 34.134,-15.283 34.134,-34.134 0.001,-18.851 -15.282,-34.133 -34.134,-34.133 z"
         style="fill:#4b494f" /></g><path
       inkscape:connector-curvature="0"
       id="path16"
       d="m -568.15409,320.43796 h -17.067 c -4.267,0 -7.726,3.458 -7.726,7.726 0,4.268 3.459,7.726 7.726,7.726 h 17.067 c 4.268,0 7.726,-3.458 7.726,-7.726 10e-4,-4.266 -3.457,-7.726 -7.726,-7.726 z"
       style="fill:#85828c" /><path
       inkscape:connector-curvature="0"
       id="path18"
       d="m -534.02109,345.23696 v -34.135 h -17.065 c -9.426,0 -17.067,7.642 -17.067,17.067 0,9.425 7.642,17.067 17.067,17.067 z"
       style="fill:#36a882" /><path
       inkscape:connector-curvature="0"
       id="path20"
       d="m -202.16209,326.75196 -9.382,-50.333 c -0.783,-4.196 -4.822,-6.965 -9.011,-6.18 -4.195,0.782 -6.962,4.816 -6.18,9.011 l 9.382,50.333 c 0.693,3.717 3.938,6.312 7.586,6.312 0.47,0 0.947,-0.042 1.425,-0.132 4.195,-0.782 6.962,-4.816 6.18,-9.011 z"
       style="fill:#85828c" /><polygon
       transform="translate(-657.35209,-149.69404)"
       id="polygon22"
       points="400.673,431.658 417.506,403.93 408.355,353.23 391.461,381.057 "
       style="fill:#36a882" /><path
       inkscape:connector-curvature="0"
       id="path24"
       d="m -259.29709,14.089959 -25.647,-137.609999 c -0.537,-2.877 -2.652,-5.204 -5.465,-6.011 l -23.115,-6.631 c -4.098,-1.175 -8.382,1.194 -9.557,5.296 -1.177,4.101 1.194,8.381 5.296,9.557 l 18.526,5.315 24.773,132.915999 c 0.693,3.717 3.938,6.312 7.586,6.312 0.47,0 0.947,-0.042 1.425,-0.132 4.193,-0.783 6.96,-4.817 6.178,-9.012 z"
       style="fill:#85828c" /><path
       inkscape:connector-curvature="0"
       id="path26"
       d="m -250.74509,8.9909592 -33.554,6.2539998 47.273,259.611001 c 0.613,3.369 3.848,5.596 7.213,4.969 l 21.401,-3.989 c 3.346,-0.623 5.558,-3.835 4.948,-7.183 z"
       style="fill:#3bcd92" /><path
       inkscape:connector-curvature="0"
       id="path28"
       d="m -234.76109,6.0119592 c -0.783,-4.196 -4.821,-6.96800005 -9.011,-6.18000005 l -50.333,9.38200005 c -4.195,0.782 -6.962,4.8159998 -6.18,9.0109998 0.693,3.717 3.938,6.312 7.586,6.312 0.47,0 0.947,-0.042 1.425,-0.132 l 50.333,-9.381 c 4.196,-0.782 6.962,-4.816 6.18,-9.0119998 z"
       style="fill:#feb756" /><circle
       id="circle30"
       r="17.066999"
       cy="-132.62704"
       cx="-329.22107"
       style="fill:#57555c" /></g><g
     id="g32"
     transform="translate(52.667312,182.99094)" /><g
     id="g34"
     transform="translate(52.667312,182.99094)" /><g
     id="g36"
     transform="translate(52.667312,182.99094)" /><g
     id="g38"
     transform="translate(52.667312,182.99094)" /><g
     id="g40"
     transform="translate(52.667312,182.99094)" /><g
     id="g42"
     transform="translate(52.667312,182.99094)" /><g
     id="g44"
     transform="translate(52.667312,182.99094)" /><g
     id="g46"
     transform="translate(52.667312,182.99094)" /><g
     id="g48"
     transform="translate(52.667312,182.99094)" /><g
     id="g50"
     transform="translate(52.667312,182.99094)" /><g
     id="g52"
     transform="translate(52.667312,182.99094)" /><g
     id="g54"
     transform="translate(52.667312,182.99094)" /><g
     id="g56"
     transform="translate(52.667312,182.99094)" /><g
     id="g58"
     transform="translate(52.667312,182.99094)" /><g
     id="g60"
     transform="translate(52.667312,182.99094)" /><text
     xml:space="preserve"
     style="font-style:italic;font-variant:normal;font-weight:300;font-stretch:normal;font-size:533.33331299px;line-height:1.25;font-family:'Roboto Condensed';-inkscape-font-specification:'Roboto Condensed, Light Italic';font-variant-ligatures:normal;font-variant-caps:normal;font-variant-numeric:normal;font-feature-settings:normal;text-align:start;letter-spacing:0px;word-spacing:0px;writing-mode:lr-tb;text-anchor:start;fill:#4d4d4d;fill-opacity:1;stroke:none;stroke-width:6.77336025"
     x="185.5457"
     y="586.54224"
     id="text3760"
     transform="scale(1.0073375,0.99271594)"><tspan
       sodipodi:role="line"
       id="tspan3833"
       x="185.5457"
       y="586.54224">xPlore</tspan></text>
<flowRoot
     xml:space="preserve"
     id="flowRoot3762"
     style="font-style:normal;font-weight:normal;font-size:40px;line-height:1.25;font-family:sans-serif;letter-spacing:0px;word-spacing:0px;fill:#000000;fill-opacity:1;stroke:none"
     transform="translate(52.667312,182.99094)"><flowRegion
       id="flowRegion3764"><rect
         id="rect3766"
         width="251.65955"
         height="299.38809"
         x="-2117.4114"
         y="-525.01385" /></flowRegion><flowPara
       id="flowPara3768"></flowPara></flowRoot><g
     id="g4057"
     transform="matrix(1.21297,0,0,1.21297,1467.8081,217.60034)"><path
       id="path3980"
       d="m 200,200.03125 c 0,53.01562 -42.98047,96 -96,96 -53.019531,0 -96,-42.98438 -96,-96 0,-53.01953 42.980469,-96 96,-96 53.01953,0 96,42.98047 96,96 z m 0,0"
       inkscape:connector-curvature="0"
       style="fill:#f9f9f9" /><path
       id="path3982"
       d="m 468,200.03125 c 0,53.01562 -42.98047,96 -96,96 -53.01953,0 -96,-42.98438 -96,-96 0,-53.01953 42.98047,-96 96,-96 53.01953,0 96,42.98047 96,96 z m 0,0"
       inkscape:connector-curvature="0"
       style="fill:#f9f9f9" /><path
       id="path3984"
       d="m 45.414062,182.21484 c -2.691406,-0.008 -5.203124,-1.37109 -6.675781,-3.6289 -1.472656,-2.25391 -1.710937,-5.10157 -0.632812,-7.57422 2.375,-5.39844 5.410156,-10.48438 9.03125,-15.14063 1.730469,-2.32812 4.582031,-3.53906 7.460937,-3.16015 2.875,0.375 5.320313,2.28125 6.390625,4.97656 1.074219,2.69141 0.601563,5.75781 -1.226562,8.00781 -2.816407,3.60938 -5.171875,7.5586 -7.019531,11.75 -1.28125,2.90235 -4.152344,4.77344 -7.328126,4.76953 z m 0,0"
       inkscape:connector-curvature="0"
       style="fill:#ebebeb" /><path
       id="path3986"
       d="m 104,272.03125 c -37.027344,0.12891 -68.066406,-27.94922 -71.640625,-64.80078 -0.441406,-4.39844 2.765625,-8.32031 7.160156,-8.76172 4.398438,-0.44141 8.320313,2.76562 8.761719,7.16016 2.777344,28.66406 26.921875,50.5 55.71875,50.40234 4.41797,0 8,3.57812 8,8 0,4.41797 -3.58203,8 -8,8 z m 0,0"
       inkscape:connector-curvature="0"
       style="fill:#ebebeb" /><path
       id="path3988"
       d="m 104,304.03125 c -57.4375,0 -104,-46.5625 -104,-104 0,-57.44141 46.5625,-104 104,-104 57.4375,0 104,46.55859 104,104 -0.0664,57.41016 -46.58984,103.93359 -104,104 z m 0,-192 c -48.601562,0 -88,39.39844 -88,88 0,48.59766 39.398438,88 88,88 48.60156,0 88,-39.40234 88,-88 -0.0586,-48.57813 -39.42188,-87.94531 -88,-88 z m 0,0"
       inkscape:connector-curvature="0"
       style="fill:#ee8427" /><path
       id="path3990"
       d="m 372,304.03125 c -57.4375,0 -104,-46.5625 -104,-104 0,-57.44141 46.5625,-104 104,-104 57.4375,0 104,46.55859 104,104 -0.0664,57.41016 -46.58984,103.93359 -104,104 z m 0,-192 c -48.60156,0 -88,39.39844 -88,88 0,48.59766 39.39844,88 88,88 48.60156,0 88,-39.40234 88,-88 -0.0586,-48.57813 -39.42188,-87.94531 -88,-88 z m 0,0"
       inkscape:connector-curvature="0"
       style="fill:#ee8427" /><path
       id="path3992"
       d="m 439.64062,201.07812 c -4.10546,-0.004 -7.54296,-3.11718 -7.95312,-7.19921 C 428.625,163.23437 402.79297,139.92969 372,140.03125 c -4.41797,0 -8,-3.58203 -8,-8 0,-4.42187 3.58203,-8 8,-8 39.01562,-0.125 71.74219,29.41406 75.60937,68.23828 0.22266,2.11328 -0.40625,4.23047 -1.74609,5.88281 -1.33984,1.65235 -3.28516,2.70313 -5.39844,2.91797 -0.28906,-0.008 -0.5625,0.008 -0.82422,0.008 z m 0,0"
       inkscape:connector-curvature="0"
       style="fill:#ebebeb" /><path
       id="path3994"
       d="m 426.55078,248.62109 c -3.02734,0 -5.80078,-1.71093 -7.15234,-4.42187 -1.35547,-2.71094 -1.06641,-5.95313 0.7539,-8.37891 2.89063,-3.86719 5.3086,-8.07422 7.19922,-12.51953 1.05469,-2.71484 3.50391,-4.64062 6.39063,-5.03125 2.88672,-0.39062 5.7539,0.82031 7.49218,3.16016 1.73438,2.33984 2.0625,5.4375 0.85547,8.08593 -2.3789,5.63672 -5.42578,10.96485 -9.08203,15.86719 -1.51562,2.04297 -3.91015,3.2461 -6.45703,3.23828 z m 0,0"
       inkscape:connector-curvature="0"
       style="fill:#ebebeb" /><path
       id="path3996"
       d="M 235.625,216.30859 116.42578,207.79687 93.496094,184.82812 175.50391,72.492188 336,63.574219 V 90.835938 Z M 123.54297,192.26172 228.34375,199.75 320,85.222656 v -4.738281 l -136,7.546875 -69.50391,95.19922 z m 0,0"
       inkscape:connector-curvature="0"
       style="fill:#fbedbf" /><path
       id="path3998"
       d="m 232,216.03125 c -3.25,0 -6.17969,-1.96875 -7.40625,-4.97656 l -72,-176.000002 c -1.67188,-4.09375 0.28906,-8.761719 4.38281,-10.433594 4.08985,-1.667969 8.76172,0.292968 10.42969,4.382812 l 72,176.000004 c 1.65234,4.08203 -0.30469,8.73046 -4.375,10.40234 -0.96094,0.39844 -1.98828,0.61328 -3.03125,0.625 z m 0,0"
       inkscape:connector-curvature="0"
       style="fill:#fbedbf" /><path
       id="path4000"
       d="m 131.3125,8.03125 h 67.28906 c 4.03125,-0.00391 7.81641,1.933594 10.17188,5.203125 2.35937,3.269531 3,7.476563 1.72265,11.300781 -1.52343,4.578125 -5.54687,7.878906 -10.33593,8.476563 l -41.83985,5.226562 c -9.03515,1.128907 -18.08984,-1.976562 -24.52734,-8.417969 l -8.13672,-8.136718 c -2.28906,-2.285156 -2.97266,-5.726563 -1.73437,-8.714844 1.23828,-2.988281 4.15624,-4.9375 7.39062,-4.9375 z m 0,0"
       inkscape:connector-curvature="0"
       style="fill:#ee8427" /><path
       id="path4002"
       d="M 368,88.03125 C 363.96484,88.01953 360.56641,85.007812 360.07422,81 c -0.48828,-4.003906 2.08203,-7.75 5.99609,-8.730469 l 18.40235,-4.601562 c 4.88281,-1.214844 8.09375,-5.882813 7.48437,-10.878907 -0.61328,-4.996093 -4.85156,-8.753906 -9.88672,-8.757812 h -55.125 l 7.71094,11.558594 c 2.45313,3.675781 1.46094,8.644531 -2.21484,11.09375 -3.67578,2.453125 -8.64454,1.460937 -11.09766,-2.214844 l -16,-24 c -1.63672,-2.453125 -1.78906,-5.613281 -0.39844,-8.214844 1.39063,-2.601562 4.10547,-4.226562 7.05469,-4.222656 h 70.03125 c 13.17578,-0.08203 24.32422,9.71875 25.93359,22.796875 1.60938,13.078125 -6.83203,25.289063 -19.63672,28.402344 l -18.39843,4.589843 C 369.29687,87.972656 368.64844,88.042969 368,88.03125 Z m 0,0"
       inkscape:connector-curvature="0"
       style="fill:#fbb540" /><path
       id="path4004"
       d="m 372,200.03125 c -2.30859,0 -4.50391,-0.99609 -6.02344,-2.73047 -19.23828,-22.01953 -32.65234,-48.50781 -39.01562,-77.04687 L 320.18359,89.765625 C 320.0625,89.195312 320,88.613281 320,88.03125 v -24 c 0,-4.421875 3.58203,-8 8,-8 4.41797,0 8,3.578125 8,8 V 87.148438 L 342.58594,116.75 c 5.77343,25.91797 17.96093,49.97656 35.4375,69.96875 2.09765,2.35937 2.60937,5.73437 1.30859,8.60937 -1.30469,2.875 -4.17578,4.71875 -7.33203,4.70313 z m 0,0"
       inkscape:connector-curvature="0"
       style="fill:#fbedbf" /><path
       id="path4006"
       d="m 104,224.03125 c -13.253906,0 -24,-10.74609 -24,-24 0,-13.25781 10.746094,-24 24,-24 13.25391,0 24,10.74219 24,24 0,13.25391 -10.74609,24 -24,24 z m 0,0"
       inkscape:connector-curvature="0"
       style="fill:#c3c3c3" /><path
       id="path4008"
       d="m 372,224.03125 c -13.25391,0 -24,-10.74609 -24,-24 0,-13.25781 10.74609,-24 24,-24 13.25391,0 24,10.74219 24,24 0,13.25391 -10.74609,24 -24,24 z m 0,0"
       inkscape:connector-curvature="0"
       style="fill:#c3c3c3" /><path
       id="path4010"
       d="m 216,248.03125 c -17.67188,0 -32,-14.32813 -32,-32 0,-17.67578 14.32812,-32 32,-32 17.67187,0 32,14.32422 32,32 0,17.67187 -14.32813,32 -32,32 z m 0,0"
       inkscape:connector-curvature="0"
       style="fill:#fbb540" /><path
       id="path4012"
       d="m 256,272.03125 h -16 c -2.80859,-0.004 -5.41016,-1.47656 -6.85547,-3.88281 l -24,-40 c -2.17969,-3.77735 -0.92969,-8.60547 2.80859,-10.85157 3.73829,-2.24609 8.58985,-1.08593 10.90235,2.61329 l 21.67187,36.12109 H 256 c 4.41797,0 8,3.57812 8,8 0,4.41797 -3.58203,8 -8,8 z m 0,0"
       inkscape:connector-curvature="0"
       style="fill:#9c9c9c" /><path
       id="path4014"
       d="M 382.03125,32.03125 H 356 v 16 h 26.03125 c 5.03516,0.0039 9.27344,3.761719 9.88281,8.757812 0.61328,4.996094 -2.59765,9.664063 -7.48047,10.878907 l -18.40234,4.601562 c -3.92188,0.984375 -6.49219,4.738281 -5.99219,8.75 0.5,4.015625 3.91797,7.023438 7.96094,7.011719 0.65625,0 1.30859,-0.07813 1.94531,-0.242188 l 18.39844,-4.589843 C 401.14844,80.082031 409.58984,67.875 407.98047,54.796875 406.37109,41.71875 395.22266,31.917969 382.04687,31.996094 Z m 0,0"
       inkscape:connector-curvature="0"
       style="fill:#9c9c9c" /><path
       style="fill:#3bcd92;fill-opacity:1;stroke-width:0.19175665"
       d=""
       id="path4065"
       inkscape:connector-curvature="0"
       transform="matrix(0.8244227,0,0,0.8244227,1443.4481,896.46949)" /><path
       style="fill:#3bcd92;fill-opacity:1;stroke-width:0.19175665"
       d=""
       id="path4067"
       inkscape:connector-curvature="0"
       transform="matrix(0.8244227,0,0,0.8244227,1443.4481,896.46949)" /><path
       style="fill:#3bcd92;fill-opacity:1;stroke-width:0.19175665"
       d=""
       id="path4071"
       inkscape:connector-curvature="0"
       transform="matrix(0.8244227,0,0,0.8244227,1443.4481,896.46949)" /><path
       style="fill:#3bcd92;fill-opacity:1;stroke-width:0.19175665"
       d=""
       id="path4103"
       inkscape:connector-curvature="0"
       transform="matrix(0.8244227,0,0,0.8244227,1443.4481,896.46949)" /><path
       style="fill:#3bcd92;fill-opacity:1;stroke-width:0.19175665"
       d=""
       id="path4105"
       inkscape:connector-curvature="0"
       transform="matrix(0.8244227,0,0,0.8244227,1443.4481,896.46949)" /><path
       style="fill:#3bcd92;fill-opacity:1;stroke-width:0.19175665"
       d=""
       id="path4107"
       inkscape:connector-curvature="0"
       transform="matrix(0.8244227,0,0,0.8244227,1443.4481,896.46949)" /><path
       style="fill:#3bcd92;fill-opacity:1;stroke-width:0.01694905"
       d=""
       id="path4111"
       inkscape:connector-curvature="0"
       transform="matrix(0.8244227,0,0,0.8244227,1443.4481,896.46949)" /><path
       style="fill:#3bcd92;fill-opacity:1;stroke-width:0.01694905"
       d=""
       id="path4113"
       inkscape:connector-curvature="0"
       transform="matrix(0.8244227,0,0,0.8244227,1443.4481,896.46949)" /><path
       style="fill:#3bcd92;fill-opacity:1;stroke-width:0.01694905"
       d=""
       id="path4115"
       inkscape:connector-curvature="0"
       transform="matrix(0.8244227,0,0,0.8244227,1443.4481,896.46949)" /><path
       style="fill:#3bcd92;fill-opacity:1;stroke-width:0.01694905"
       d=""
       id="path4117"
       inkscape:connector-curvature="0"
       transform="matrix(0.8244227,0,0,0.8244227,1443.4481,896.46949)" /><path
       style="fill:#3bcd92;fill-opacity:1;stroke-width:0.01694905"
       d=""
       id="path4119"
       inkscape:connector-curvature="0"
       transform="matrix(0.8244227,0,0,0.8244227,1443.4481,896.46949)" /><path
       style="fill:#3bcd92;fill-opacity:1;stroke-width:0.01694905"
       d=""
       id="path4121"
       inkscape:connector-curvature="0"
       transform="matrix(0.8244227,0,0,0.8244227,1443.4481,896.46949)" /><path
       style="fill:#3bcd92;fill-opacity:1;stroke-width:0.01694905"
       d=""
       id="path4123"
       inkscape:connector-curvature="0"
       transform="matrix(0.8244227,0,0,0.8244227,1443.4481,896.46949)" /><path
       style="fill:#3bcd92;fill-opacity:1;stroke-width:0.01694905"
       d=""
       id="path4183"
       inkscape:connector-curvature="0"
       transform="matrix(0.8244227,0,0,0.8244227,1443.4481,896.46949)" /><path
       style="fill:#3bcd92;fill-opacity:1;stroke-width:0.0059924"
       d=""
       id="path4207"
       inkscape:connector-curvature="0"
       transform="matrix(0.8244227,0,0,0.8244227,1443.4481,896.46949)" /><path
       style="fill:#3bcd92;fill-opacity:1;stroke-width:0.0059924"
       d=""
       id="path4209"
       inkscape:connector-curvature="0"
       transform="matrix(0.8244227,0,0,0.8244227,1443.4481,896.46949)" /><path
       style="fill:#3bcd92;fill-opacity:1;stroke-width:0.0059924"
       d=""
       id="path4211"
       inkscape:connector-curvature="0"
       transform="matrix(0.8244227,0,0,0.8244227,1443.4481,896.46949)" /><path
       style="fill:#3bcd92;fill-opacity:1;stroke-width:0.0059924"
       d=""
       id="path4213"
       inkscape:connector-curvature="0"
       transform="matrix(0.8244227,0,0,0.8244227,1443.4481,896.46949)" /><path
       style="fill:#3bcd92;fill-opacity:1;stroke-width:0.0059924"
       d=""
       id="path4215"
       inkscape:connector-curvature="0"
       transform="matrix(0.8244227,0,0,0.8244227,1443.4481,896.46949)" /><path
       style="fill:#3bcd92;fill-opacity:1;stroke-width:0.0059924"
       d=""
       id="path4217"
       inkscape:connector-curvature="0"
       transform="matrix(0.8244227,0,0,0.8244227,1443.4481,896.46949)" /><path
       style="fill:#3bcd92;fill-opacity:1;stroke-width:0.0059924"
       d=""
       id="path4219"
       inkscape:connector-curvature="0"
       transform="matrix(0.8244227,0,0,0.8244227,1443.4481,896.46949)" /><path
       style="fill:#3bcd92;fill-opacity:1;stroke-width:0.0059924"
       d=""
       id="path4221"
       inkscape:connector-curvature="0"
       transform="matrix(0.8244227,0,0,0.8244227,1443.4481,896.46949)" /><path
       style="fill:#3bcd92;fill-opacity:1;stroke-width:0.0059924"
       d=""
       id="path4223"
       inkscape:connector-curvature="0"
       transform="matrix(0.8244227,0,0,0.8244227,1443.4481,896.46949)" /><path
       style="fill:#3bcd92;fill-opacity:1;stroke-width:0.0059924"
       d=""
       id="path4225"
       inkscape:connector-curvature="0"
       transform="matrix(0.8244227,0,0,0.8244227,1443.4481,896.46949)" /><path
       style="fill:#3bcd92;fill-opacity:1;stroke-width:0.0059924"
       d=""
       id="path4227"
       inkscape:connector-curvature="0"
       transform="matrix(0.8244227,0,0,0.8244227,1443.4481,896.46949)" /><path
       style="fill:#3bcd92;fill-opacity:1;stroke-width:0.0059924"
       d=""
       id="path4229"
       inkscape:connector-curvature="0"
       transform="matrix(0.8244227,0,0,0.8244227,1443.4481,896.46949)" /><path
       style="fill:#3bcd92;fill-opacity:1;stroke-width:0.0059924"
       d=""
       id="path4231"
       inkscape:connector-curvature="0"
       transform="matrix(0.8244227,0,0,0.8244227,1443.4481,896.46949)" /><path
       style="fill:#3bcd92;fill-opacity:1;stroke-width:0.0059924"
       d=""
       id="path4233"
       inkscape:connector-curvature="0"
       transform="matrix(0.8244227,0,0,0.8244227,1443.4481,896.46949)" /><path
       style="fill:#3bcd92;fill-opacity:1;stroke-width:0.0059924"
       d=""
       id="path4235"
       inkscape:connector-curvature="0"
       transform="matrix(0.8244227,0,0,0.8244227,1443.4481,896.46949)" /><path
       style="fill:#3bcd92;fill-opacity:1;stroke-width:0.0059924"
       d=""
       id="path4237"
       inkscape:connector-curvature="0"
       transform="matrix(0.8244227,0,0,0.8244227,1443.4481,896.46949)" /><path
       style="fill:#3bcd92;fill-opacity:1;stroke-width:0.0059924"
       d=""
       id="path4239"
       inkscape:connector-curvature="0"
       transform="matrix(0.8244227,0,0,0.8244227,1443.4481,896.46949)" /><path
       style="fill:#3bcd92;fill-opacity:1;stroke-width:0.0059924"
       d=""
       id="path4241"
       inkscape:connector-curvature="0"
       transform="matrix(0.8244227,0,0,0.8244227,1443.4481,896.46949)" /><path
       style="fill:#3bcd92;fill-opacity:1;stroke-width:0.0059924"
       d=""
       id="path4247"
       inkscape:connector-curvature="0"
       transform="matrix(0.8244227,0,0,0.8244227,1443.4481,896.46949)" /><path
       style="fill:#3bcd92;fill-opacity:1;stroke-width:0.0059924"
       d=""
       id="path4249"
       inkscape:connector-curvature="0"
       transform="matrix(0.8244227,0,0,0.8244227,1443.4481,896.46949)" /><path
       style="fill:#3bcd92;fill-opacity:1;stroke-width:0.0059924"
       d=""
       id="path4251"
       inkscape:connector-curvature="0"
       transform="matrix(0.8244227,0,0,0.8244227,1443.4481,896.46949)" /><path
       style="fill:#3bcd92;fill-opacity:1;stroke-width:0.0059924"
       d=""
       id="path4253"
       inkscape:connector-curvature="0"
       transform="matrix(0.8244227,0,0,0.8244227,1443.4481,896.46949)" /><path
       style="fill:#3bcd92;fill-opacity:1;stroke-width:0.0059924"
       d=""
       id="path4255"
       inkscape:connector-curvature="0"
       transform="matrix(0.8244227,0,0,0.8244227,1443.4481,896.46949)" /><path
       style="fill:#3bcd92;fill-opacity:1;stroke-width:0.0059924"
       d=""
       id="path4257"
       inkscape:connector-curvature="0"
       transform="matrix(0.8244227,0,0,0.8244227,1443.4481,896.46949)" /><path
       style="fill:#3bcd92;fill-opacity:1;stroke-width:0.0059924"
       d=""
       id="path4259"
       inkscape:connector-curvature="0"
       transform="matrix(0.8244227,0,0,0.8244227,1443.4481,896.46949)" /><path
       style="fill:#3bcd92;fill-opacity:1;stroke-width:0.0059924"
       d=""
       id="path4261"
       inkscape:connector-curvature="0"
       transform="matrix(0.8244227,0,0,0.8244227,1443.4481,896.46949)" /><path
       style="fill:#3bcd92;fill-opacity:1;stroke-width:0.00390625"
       d=""
       id="path4267"
       inkscape:connector-curvature="0"
       transform="matrix(0.8244227,0,0,0.8244227,1443.4481,896.46949)" /><path
       style="fill:#3bcd92;fill-opacity:1;stroke-width:0.00390625"
       d=""
       id="path4269"
       inkscape:connector-curvature="0"
       transform="matrix(0.8244227,0,0,0.8244227,1443.4481,896.46949)" /></g></svg>